<svg version="1.1" id="Layer_1" xmlns="http://www.w3.org/2000/svg" xmlns:xlink="http://www.w3.org/1999/xlink" x="0px" y="0px" width="100%" viewBox="0 0 188 180" enable-background="new 0 0 188 180" xml:space="preserve">
	<path fill="#FF7301" opacity="1.000000" stroke="none" d="
M90.000000,181.000000 
	C84.977905,181.000000 79.955818,181.000000 74.320305,180.659027 
	C67.110428,177.231491 60.513973,174.144928 53.792465,170.750061 
	C43.767723,160.642380 33.868027,150.843033 23.794739,140.758255 
	C13.451569,130.855682 6.059529,119.792953 5.433832,105.106049 
	C5.456365,104.543831 5.348105,104.152267 5.278485,103.377884 
	C5.440543,100.370308 5.563961,97.745529 5.871798,94.774368 
	C9.581199,81.232590 13.106182,68.037193 16.769871,54.485203 
	C20.170710,46.592640 22.828188,38.713501 26.857990,31.613234 
	C31.251690,23.871803 39.301121,19.953308 47.364021,15.986259 
	C60.527462,12.572322 73.291824,9.111998 86.482864,5.605735 
	C88.694427,5.166969 90.516922,4.896662 92.258286,4.362085 
	C107.259422,-0.243061 121.135490,2.063756 134.138153,11.312269 
	C138.028992,15.128817 141.770782,18.631550 145.437149,22.211542 
	C152.045975,28.664677 158.609665,35.164059 165.374512,41.932106 
	C166.641556,43.472801 167.624741,44.833786 168.826859,45.961365 
	C180.099258,56.534786 185.000366,69.555321 183.759766,85.257721 
	C182.854279,88.846611 182.161163,92.096954 181.348801,95.317207 
	C178.673401,105.922691 175.954865,116.517288 173.096191,127.457779 
	C172.406982,129.187347 171.672440,130.533096 171.372894,131.969543 
	C167.941193,148.425903 158.232117,159.732117 142.917206,166.607422 
	C142.429169,166.673080 142.297775,166.878723 142.274017,167.167618 
	C142.218613,167.146652 142.135422,167.231018 141.737610,167.165588 
	C128.858200,170.493027 116.376610,173.885895 103.572586,177.290970 
	C102.845718,177.440567 102.441277,177.577942 101.842346,177.641479 
	C101.348740,177.581879 101.111038,177.710068 100.535355,177.961578 
	C96.757301,178.980637 93.378654,179.990326 90.000000,181.000000 
M98.321449,103.789726 
	C97.442848,106.093048 96.564247,108.396370 95.237549,111.874413 
	C94.619675,109.063110 94.256500,107.622627 93.989693,106.164520 
	C90.699417,88.183098 87.497185,70.184761 84.019798,52.239708 
	C83.700233,50.590607 81.647423,49.277370 80.399437,47.808170 
	C79.233788,49.183334 77.423805,50.391495 77.016434,51.963200 
	C75.434181,58.067764 74.298096,64.287941 72.995102,70.464920 
	C71.351440,78.256874 69.706940,86.048653 68.062805,93.840500 
	C65.715858,90.092224 64.523338,86.294701 62.855553,82.718826 
	C62.029415,80.947510 60.328613,79.584129 59.023537,78.036186 
	C57.433792,79.496689 55.571754,80.759354 54.327980,82.471222 
	C52.982101,84.323647 52.383400,86.705841 51.126209,88.640884 
	C50.417015,89.732468 48.954327,91.201584 47.974934,91.100906 
	C43.663235,90.657715 39.269104,90.125031 35.166855,88.808411 
	C31.677439,87.688484 28.410809,87.639496 26.822504,90.717690 
	C25.686434,92.919426 25.623844,96.564468 26.689924,98.798279 
	C28.175589,101.911255 31.467173,102.216995 34.955444,100.927345 
	C38.407616,99.651024 42.157887,98.164101 45.691658,98.355186 
	C51.512127,98.669907 55.761272,97.546829 57.697266,91.570229 
	C57.764217,91.363533 58.264553,91.297226 58.643860,91.129730 
	C60.793095,96.891266 62.791954,102.703568 65.186371,108.348068 
	C65.781982,109.752136 67.716667,111.541824 68.925514,111.462952 
	C70.126274,111.384621 71.769890,109.345360 72.199738,107.869148 
	C73.403816,103.734047 74.080154,99.445381 74.967033,95.217789 
	C76.618355,87.346291 78.271309,79.475151 79.923584,71.603859 
	C83.809830,88.748276 86.820808,105.761154 90.118309,122.718307 
	C90.527260,124.821304 92.458801,126.628204 93.684807,128.572311 
	C95.207436,126.835037 97.322830,125.341164 98.152939,123.319542 
	C102.378548,113.028580 106.271523,102.601044 110.666069,91.224258 
	C113.088326,97.694237 114.993820,103.163422 117.185509,108.515404 
	C118.875175,112.641472 121.525490,112.908714 124.109093,109.309052 
	C125.851089,106.881966 127.237724,104.201134 128.956696,101.755684 
	C129.869583,100.457001 131.187622,98.395248 132.261383,98.432808 
	C137.917221,98.630669 143.857986,96.492661 149.154236,100.530663 
	C152.088623,102.767921 155.293869,102.014267 157.653519,99.327332 
	C160.014099,96.639343 160.100723,93.421349 157.891525,90.631500 
	C155.681549,87.840675 152.809326,87.497841 149.376266,88.883904 
	C146.422821,90.076340 143.160446,91.157471 140.038101,91.148041 
	C132.426529,91.125053 124.588814,89.936882 121.929718,101.552834 
	C119.040451,93.759682 116.939568,87.713211 114.508682,81.802460 
	C113.898552,80.318932 112.003471,78.106323 111.096855,78.282036 
	C109.539047,78.583946 107.678535,80.239624 107.023605,81.784309 
	C104.045280,88.808807 101.443321,95.992882 98.321449,103.789726 
z" />
	<path fill="#000" opacity="000000" stroke="none" d="
M143.110794,166.643204 
	C158.232117,159.732117 167.941193,148.425903 171.372894,131.969543 
	C171.672440,130.533096 172.406982,129.187347 173.422638,127.391121 
	C179.852020,120.556915 185.623840,114.126541 187.540375,105.073784 
	C189.096558,97.723183 185.775528,91.503532 183.917526,84.905380 
	C185.000366,69.555321 180.099258,56.534786 168.826859,45.961365 
	C167.624741,44.833786 166.641556,43.472801 165.384537,41.558033 
	C160.835571,24.617247 153.209442,11.739668 133.955124,11.033276 
	C121.135490,2.063756 107.259422,-0.243061 92.258286,4.362085 
	C90.516922,4.896662 88.694427,5.166969 86.224365,5.275520 
	C79.679237,4.100479 73.755569,2.191673 67.974014,2.553494 
	C58.916367,3.120340 50.899559,6.677665 46.964939,15.939871 
	C39.301121,19.953308 31.251690,23.871803 26.857990,31.613234 
	C22.828188,38.713501 20.170710,46.592640 16.460011,54.583763 
	C9.618183,62.155472 3.740514,69.595032 1.000000,79.000000 
	C1.000000,53.022274 1.000000,27.044552 1.000000,1.033414 
	C63.590687,1.033414 126.181396,1.033414 188.886047,1.033414 
	C188.886047,60.999882 188.886047,120.999908 188.884293,180.999969 
	C167.567459,181.000000 146.252396,181.000000 124.715050,180.732330 
	C132.037262,178.271301 139.101288,175.437424 142.135422,167.231018 
	C142.135422,167.231018 142.218613,167.146652 142.462830,167.190613 
	C142.983917,167.134552 143.118500,166.937424 143.110794,166.643204 
z" />
	<path fill="#FFFEFE" opacity="000000" stroke="none" d="
M5.687379,95.120758 
	C5.563961,97.745529 5.440543,100.370308 5.206409,103.760643 
	C5.164808,104.776375 5.233923,105.026535 5.303039,105.276688 
	C6.059529,119.792953 13.451569,130.855682 23.800104,141.136475 
	C25.635885,146.131744 27.079689,150.559967 28.991348,154.776031 
	C33.819847,165.425018 41.849888,171.386627 53.917515,171.058380 
	C60.513973,174.144928 67.110428,177.231491 73.853439,180.659027 
	C49.730194,181.000000 25.460386,181.000000 1.000000,181.000000 
	C1.000000,149.646027 1.000000,118.291672 1.262933,86.706207 
	C2.913037,89.356987 4.300208,92.238876 5.687379,95.120758 
z" />
	<path fill="#FFCDAA" opacity="1.000000" stroke="none" d="
M5.871798,94.774368 
	C4.300208,92.238876 2.913037,89.356987 1.262933,86.237549 
	C1.000000,83.958336 1.000000,81.916664 1.000000,79.437500 
	C3.740514,69.595032 9.618183,62.155472 16.321302,54.940361 
	C13.106182,68.037193 9.581199,81.232590 5.871798,94.774368 
z" />
	<path fill="#FFCEAB" opacity="1.000000" stroke="none" d="
M141.737610,167.165588 
	C139.101288,175.437424 132.037262,178.271301 124.246391,180.732330 
	C121.958336,181.000000 119.916664,181.000000 117.143822,180.750946 
	C112.240097,179.427521 108.067558,178.353134 103.895012,177.278748 
	C116.376610,173.885895 128.858200,170.493027 141.737610,167.165588 
z" />
	<path fill="#FFF9F5" opacity="1.000000" stroke="none" d="
M103.572586,177.290970 
	C108.067558,178.353134 112.240097,179.427521 116.706322,180.750946 
	C108.312439,181.000000 99.624870,181.000000 90.468658,181.000000 
	C93.378654,179.990326 96.757301,178.980637 100.732391,178.021851 
	C101.632050,178.086716 101.868050,177.967575 102.036827,177.715332 
	C102.441277,177.577942 102.845718,177.440567 103.572586,177.290970 
z" />
	<path fill="#FFFAF7" opacity="1.000000" stroke="none" d="
M98.513718,103.454643 
	C101.443321,95.992882 104.045280,88.808807 107.023605,81.784309 
	C107.678535,80.239624 109.539047,78.583946 111.096855,78.282036 
	C112.003471,78.106323 113.898552,80.318932 114.508682,81.802460 
	C116.939568,87.713211 119.040451,93.759682 121.929718,101.552834 
	C124.588814,89.936882 132.426529,91.125053 140.038101,91.148041 
	C143.160446,91.157471 146.422821,90.076340 149.376266,88.883904 
	C152.809326,87.497841 155.681549,87.840675 157.891525,90.631500 
	C160.100723,93.421349 160.014099,96.639343 157.653519,99.327332 
	C155.293869,102.014267 152.088623,102.767921 149.154236,100.530663 
	C143.857986,96.492661 137.917221,98.630669 132.261383,98.432808 
	C131.187622,98.395248 129.869583,100.457001 128.956696,101.755684 
	C127.237724,104.201134 125.851089,106.881966 124.109093,109.309052 
	C121.525490,112.908714 118.875175,112.641472 117.185509,108.515404 
	C114.993820,103.163422 113.088326,97.694237 110.666069,91.224258 
	C106.271523,102.601044 102.378548,113.028580 98.152939,123.319542 
	C97.322830,125.341164 95.207436,126.835037 93.684814,128.572311 
	C92.458801,126.628204 90.527260,124.821304 90.118309,122.718307 
	C86.820808,105.761154 83.809830,88.748276 79.923584,71.603859 
	C78.271309,79.475151 76.618355,87.346291 74.967033,95.217789 
	C74.080154,99.445381 73.403816,103.734047 72.199738,107.869148 
	C71.769890,109.345360 70.126274,111.384621 68.925514,111.462952 
	C67.716667,111.541824 65.781982,109.752136 65.186371,108.348068 
	C62.791954,102.703568 60.793095,96.891266 58.643860,91.129730 
	C58.264553,91.297226 57.764217,91.363533 57.697266,91.570229 
	C55.761272,97.546829 51.512127,98.669907 45.691658,98.355186 
	C42.157887,98.164101 38.407616,99.651024 34.955444,100.927345 
	C31.467173,102.216995 28.175589,101.911255 26.689924,98.798279 
	C25.623844,96.564468 25.686434,92.919426 26.822504,90.717690 
	C28.410809,87.639496 31.677439,87.688484 35.166855,88.808411 
	C39.269104,90.125031 43.663235,90.657715 47.974934,91.100906 
	C48.954327,91.201584 50.417015,89.732468 51.126209,88.640884 
	C52.383400,86.705841 52.982101,84.323647 54.327980,82.471222 
	C55.571754,80.759354 57.433792,79.496689 59.023537,78.036186 
	C60.328613,79.584129 62.029415,80.947510 62.855553,82.718826 
	C64.523338,86.294701 65.715858,90.092224 68.062805,93.840500 
	C69.706940,86.048653 71.351440,78.256874 72.995102,70.464920 
	C74.298096,64.287941 75.434181,58.067764 77.016434,51.963200 
	C77.423805,50.391495 79.233788,49.183334 80.399445,47.808174 
	C81.647423,49.277370 83.700233,50.590607 84.019798,52.239708 
	C87.497185,70.184761 90.699417,88.183098 93.989693,106.164520 
	C94.256500,107.622627 94.619675,109.063110 95.237549,111.874413 
	C96.564247,108.396370 97.442848,106.093048 98.513718,103.454643 
z" />
	<path fill="#FFCFAC" opacity="1.000000" stroke="none" d="
M183.759766,85.257721 
	C185.775528,91.503532 189.096558,97.723183 187.540375,105.073784 
	C185.623840,114.126541 179.852020,120.556915 173.579346,127.049416 
	C175.954865,116.517288 178.673401,105.922691 181.348801,95.317207 
	C182.161163,92.096954 182.854279,88.846611 183.759766,85.257721 
z" />
	<path fill="#FFCDA9" opacity="1.000000" stroke="none" d="
M53.792465,170.750061 
	C41.849888,171.386627 33.819847,165.425018 28.991348,154.776031 
	C27.079689,150.559967 25.635885,146.131744 23.973698,141.421906 
	C33.868027,150.843033 43.767723,160.642380 53.792465,170.750061 
z" />
	<path fill="#FFD0AD" opacity="1.000000" stroke="none" d="
M134.138153,11.312269 
	C153.209442,11.739668 160.835571,24.617247 165.202240,41.270050 
	C158.609665,35.164059 152.045975,28.664677 145.437149,22.211542 
	C141.770782,18.631550 138.028992,15.128817 134.138153,11.312269 
z" />
	<path fill="#FFCFAB" opacity="1.000000" stroke="none" d="
M47.364021,15.986259 
	C50.899559,6.677665 58.916367,3.120340 67.974014,2.553494 
	C73.755569,2.191673 79.679237,4.100479 85.797684,5.321458 
	C73.291824,9.111998 60.527462,12.572322 47.364021,15.986259 
z" />
	<path fill="#FFCDAA" opacity="1.000000" stroke="none" d="
M5.433832,105.106049 
	C5.233923,105.026535 5.164808,104.776375 5.167769,104.143448 
	C5.348105,104.152267 5.456365,104.543831 5.433832,105.106049 
z" />
	<path fill="#FFCEAB" opacity="1.000000" stroke="none" d="
M142.917206,166.607422 
	C143.118500,166.937424 142.983917,167.134552 142.518250,167.211578 
	C142.297775,166.878723 142.429169,166.673080 142.917206,166.607422 
z" />
	<path fill="#FFCEAB" opacity="1.000000" stroke="none" d="
M101.842346,177.641479 
	C101.868050,177.967575 101.632050,178.086716 101.131805,178.012482 
	C101.111038,177.710068 101.348740,177.581879 101.842346,177.641479 
z" />
</svg>
